STARTFONT 2.1
FONT -Monotype-Rockwell-Bold-I-Normal--10-100-72-72-P-53-ISO8859-1
SIZE 10 72 72
FONTBOUNDINGBOX 16 14 -4 -3

STARTPROPERTIES 22
FOUNDRY "Monotype"
FAMILY_NAME "Rockwell"
WEIGHT_NAME "Bold"
SLANT "I"
SETWIDTH_NAME "Normal"
ADD_STYLE_NAME ""
PIXEL_SIZE 10
POINT_SIZE 100
RESOLUTION_X 72
RESOLUTION_Y 72
SPACING "P"
AVERAGE_WIDTH 53
CHARSET_REGISTRY "ISO8859"
CHARSET_ENCODING "1"
FULL_NAME "Rockwell-BoldItalic"
COPYRIGHT "Copyright (c) 1991 The Monotype Corporation plc."
WEIGHT 10
X_HEIGHT 5
QUAD_WIDTH 6
DEFAULT_CHAR 32
FONT_DESCENT 3
FONT_ASCENT 9
ENDPROPERTIES

CHARS 190

STARTCHAR space
ENCODING 32
SWIDTH 250 0
DWIDTH 3 0
BBX 1 1 0 0
BITMAP
00
ENDCHAR

STARTCHAR exclam
ENCODING 33
SWIDTH 333 0
DWIDTH 3 0
BBX 3 8 1 0
BITMAP
20
60
60
40
40
40
00
C0
ENDCHAR

STARTCHAR quotedbl
ENCODING 34
SWIDTH 552 0
DWIDTH 6 0
BBX 4 3 2 5
BITMAP
D0
A0
A0
ENDCHAR

STARTCHAR numbersign
ENCODING 35
SWIDTH 668 0
DWIDTH 7 0
BBX 6 8 1 0
BITMAP
2C
28
FC
48
48
FC
50
D0
ENDCHAR

STARTCHAR dollar
ENCODING 36
SWIDTH 500 0
DWIDTH 5 0
BBX 5 9 0 -1
BITMAP
30
68
60
60
30
30
B0
F0
40
ENDCHAR

STARTCHAR percent
ENCODING 37
SWIDTH 927 0
DWIDTH 9 0
BBX 8 8 1 0
BITMAP
63
A6
AC
E8
16
2F
4A
C6
ENDCHAR

STARTCHAR ampersand
ENCODING 38
SWIDTH 740 0
DWIDTH 7 0
BBX 7 8 1 0
BITMAP
38
28
28
30
76
DC
C8
74
ENDCHAR

STARTCHAR quoteright
ENCODING 39
SWIDTH 333 0
DWIDTH 3 0
BBX 2 3 1 5
BITMAP
C0
40
80
ENDCHAR

STARTCHAR parenleft
ENCODING 40
SWIDTH 344 0
DWIDTH 3 0
BBX 4 11 1 -3
BITMAP
10
20
60
40
C0
C0
80
80
80
40
40
ENDCHAR

STARTCHAR parenright
ENCODING 41
SWIDTH 344 0
DWIDTH 3 0
BBX 4 11 0 -3
BITMAP
20
20
30
30
30
30
20
20
60
40
80
ENDCHAR

STARTCHAR asterisk
ENCODING 42
SWIDTH 563 0
DWIDTH 6 0
BBX 5 5 1 2
BITMAP
20
A0
78
E0
B0
ENDCHAR

STARTCHAR plus
ENCODING 43
SWIDTH 668 0
DWIDTH 7 0
BBX 5 5 1 0
BITMAP
20
20
F8
20
20
ENDCHAR

STARTCHAR comma
ENCODING 44
SWIDTH 333 0
DWIDTH 3 0
BBX 2 4 0 -2
BITMAP
40
C0
40
80
ENDCHAR

STARTCHAR minus
ENCODING 45
SWIDTH 668 0
DWIDTH 7 0
BBX 6 1 1 3
BITMAP
FC
ENDCHAR

STARTCHAR period
ENCODING 46
SWIDTH 333 0
DWIDTH 3 0
BBX 2 2 1 0
BITMAP
C0
C0
ENDCHAR

STARTCHAR slash
ENCODING 47
SWIDTH 508 0
DWIDTH 4 0
BBX 6 10 0 -2
BITMAP
0C
08
10
10
30
20
20
40
40
80
ENDCHAR

STARTCHAR zero
ENCODING 48
SWIDTH 542 0
DWIDTH 5 0
BBX 5 8 1 0
BITMAP
30
58
D8
D8
D0
90
B0
60
ENDCHAR

STARTCHAR one
ENCODING 49
SWIDTH 542 0
DWIDTH 5 0
BBX 4 8 1 0
BITMAP
70
30
20
20
60
60
60
E0
ENDCHAR

STARTCHAR two
ENCODING 50
SWIDTH 542 0
DWIDTH 5 0
BBX 5 8 0 0
BITMAP
38
48
58
10
20
40
D0
F0
ENDCHAR

STARTCHAR three
ENCODING 51
SWIDTH 542 0
DWIDTH 5 0
BBX 5 8 1 0
BITMAP
30
58
18
18
30
10
90
F0
ENDCHAR

STARTCHAR four
ENCODING 52
SWIDTH 542 0
DWIDTH 5 0
BBX 5 8 1 0
BITMAP
18
30
70
50
B0
F8
20
70
ENDCHAR

STARTCHAR five
ENCODING 53
SWIDTH 542 0
DWIDTH 5 0
BBX 5 8 1 0
BITMAP
78
48
40
70
10
10
90
E0
ENDCHAR

STARTCHAR six
ENCODING 54
SWIDTH 542 0
DWIDTH 5 0
BBX 5 8 1 0
BITMAP
30
48
C0
F0
90
90
90
60
ENDCHAR

STARTCHAR seven
ENCODING 55
SWIDTH 542 0
DWIDTH 5 0
BBX 5 8 1 0
BITMAP
78
C8
10
30
20
60
60
E0
ENDCHAR

STARTCHAR eight
ENCODING 56
SWIDTH 542 0
DWIDTH 5 0
BBX 5 8 1 0
BITMAP
30
68
48
50
F0
D0
90
60
ENDCHAR

STARTCHAR nine
ENCODING 57
SWIDTH 542 0
DWIDTH 5 0
BBX 5 8 1 0
BITMAP
30
48
48
58
78
10
90
E0
ENDCHAR

STARTCHAR colon
ENCODING 58
SWIDTH 333 0
DWIDTH 3 0
BBX 3 5 1 0
BITMAP
60
40
00
C0
C0
ENDCHAR

STARTCHAR semicolon
ENCODING 59
SWIDTH 333 0
DWIDTH 3 0
BBX 3 7 0 -2
BITMAP
60
60
00
40
C0
40
80
ENDCHAR

STARTCHAR less
ENCODING 60
SWIDTH 667 0
DWIDTH 7 0
BBX 6 6 1 0
BITMAP
0C
38
E0
E0
38
0C
ENDCHAR

STARTCHAR equal
ENCODING 61
SWIDTH 667 0
DWIDTH 7 0
BBX 6 4 1 1
BITMAP
FC
00
00
FC
ENDCHAR

STARTCHAR greater
ENCODING 62
SWIDTH 667 0
DWIDTH 7 0
BBX 6 6 1 0
BITMAP
80
E0
1C
1C
E0
80
ENDCHAR

STARTCHAR question
ENCODING 63
SWIDTH 542 0
DWIDTH 5 0
BBX 5 8 1 0
BITMAP
70
D8
18
18
70
40
00
C0
ENDCHAR

STARTCHAR at
ENCODING 64
SWIDTH 979 0
DWIDTH 10 0
BBX 9 11 0 -3
BITMAP
1E00
6100
5A80
B680
A680
A680
A580
BF80
4080
6100
1E00
ENDCHAR

STARTCHAR A
ENCODING 65
SWIDTH 646 0
DWIDTH 6 0
BBX 7 8 0 0
BITMAP
1E
14
14
14
24
3C
64
EE
ENDCHAR

STARTCHAR B
ENCODING 66
SWIDTH 667 0
DWIDTH 7 0
BBX 7 8 0 0
BITMAP
7C
36
36
64
7C
64
6C
F8
ENDCHAR

STARTCHAR C
ENCODING 67
SWIDTH 771 0
DWIDTH 8 0
BBX 8 8 1 0
BITMAP
1F
62
40
C0
C0
C0
46
78
ENDCHAR

STARTCHAR D
ENCODING 68
SWIDTH 760 0
DWIDTH 8 0
BBX 8 8 0 0
BITMAP
7C
36
33
33
63
66
66
FC
ENDCHAR

STARTCHAR E
ENCODING 69
SWIDTH 635 0
DWIDTH 6 0
BBX 7 8 0 0
BITMAP
7E
36
30
20
78
60
64
FC
ENDCHAR

STARTCHAR F
ENCODING 70
SWIDTH 583 0
DWIDTH 6 0
BBX 7 8 0 0
BITMAP
7E
32
30
38
20
60
60
F0
ENDCHAR

STARTCHAR G
ENCODING 71
SWIDTH 813 0
DWIDTH 8 0
BBX 8 8 1 0
BITMAP
3F
62
C0
C0
C0
CE
46
78
ENDCHAR

STARTCHAR H
ENCODING 72
SWIDTH 740 0
DWIDTH 7 0
BBX 8 8 0 0
BITMAP
7F
36
26
66
7E
64
64
EE
ENDCHAR

STARTCHAR I
ENCODING 73
SWIDTH 396 0
DWIDTH 4 0
BBX 5 8 0 0
BITMAP
78
30
30
30
60
60
60
F0
ENDCHAR

STARTCHAR J
ENCODING 74
SWIDTH 375 0
DWIDTH 4 0
BBX 6 11 0 -3
BITMAP
1C
18
18
18
18
30
30
30
30
20
E0
ENDCHAR

STARTCHAR K
ENCODING 75
SWIDTH 708 0
DWIDTH 7 0
BBX 8 8 0 0
BITMAP
7F
32
34
68
78
6C
6C
EE
ENDCHAR

STARTCHAR L
ENCODING 76
SWIDTH 604 0
DWIDTH 6 0
BBX 6 8 0 0
BITMAP
78
30
30
60
60
64
64
FC
ENDCHAR

STARTCHAR M
ENCODING 77
SWIDTH 1021 0
DWIDTH 10 0
BBX 11 8 0 0
BITMAP
79E0
39C0
3BC0
2AC0
4EC0
4DC0
4D80
EBC0
ENDCHAR

STARTCHAR N
ENCODING 78
SWIDTH 792 0
DWIDTH 8 0
BBX 9 8 0 0
BITMAP
7B80
3B00
3A00
3A00
4A00
4E00
4E00
EC00
ENDCHAR

STARTCHAR O
ENCODING 79
SWIDTH 823 0
DWIDTH 8 0
BBX 7 8 1 0
BITMAP
3C
66
42
C2
C6
C6
CC
78
ENDCHAR

STARTCHAR P
ENCODING 80
SWIDTH 646 0
DWIDTH 6 0
BBX 7 8 0 0
BITMAP
7C
36
26
26
7C
60
60
E0
ENDCHAR

STARTCHAR Q
ENCODING 81
SWIDTH 823 0
DWIDTH 8 0
BBX 7 10 1 -2
BITMAP
3C
66
42
C2
C6
C6
CC
78
70
18
ENDCHAR

STARTCHAR R
ENCODING 82
SWIDTH 698 0
DWIDTH 7 0
BBX 7 8 0 0
BITMAP
7C
36
36
66
7E
6C
6C
EE
ENDCHAR

STARTCHAR S
ENCODING 83
SWIDTH 510 0
DWIDTH 5 0
BBX 6 8 0 0
BITMAP
3C
68
60
30
38
18
D8
B0
ENDCHAR

STARTCHAR T
ENCODING 84
SWIDTH 688 0
DWIDTH 7 0
BBX 7 8 1 0
BITMAP
FE
B4
30
30
30
30
60
F0
ENDCHAR

STARTCHAR U
ENCODING 85
SWIDTH 708 0
DWIDTH 7 0
BBX 7 8 1 0
BITMAP
EE
64
CC
C8
C8
C8
C8
70
ENDCHAR

STARTCHAR V
ENCODING 86
SWIDTH 646 0
DWIDTH 6 0
BBX 7 8 1 0
BITMAP
EE
44
48
48
70
70
60
60
ENDCHAR

STARTCHAR W
ENCODING 87
SWIDTH 896 0
DWIDTH 9 0
BBX 10 8 1 0
BITMAP
EDC0
4980
4900
5F00
5E00
6E00
6C00
6C00
ENDCHAR

STARTCHAR X
ENCODING 88
SWIDTH 677 0
DWIDTH 7 0
BBX 8 8 0 0
BITMAP
7F
32
1C
18
18
2C
6C
EE
ENDCHAR

STARTCHAR Y
ENCODING 89
SWIDTH 625 0
DWIDTH 6 0
BBX 7 8 1 0
BITMAP
EE
6C
68
70
30
20
60
F0
ENDCHAR

STARTCHAR Z
ENCODING 90
SWIDTH 604 0
DWIDTH 6 0
BBX 7 8 0 0
BITMAP
3E
6C
1C
18
30
60
E4
F8
ENDCHAR

STARTCHAR bracketleft
ENCODING 91
SWIDTH 385 0
DWIDTH 4 0
BBX 5 11 0 -3
BITMAP
38
20
60
60
60
60
40
40
C0
C0
E0
ENDCHAR

STARTCHAR backslash
ENCODING 92
SWIDTH 508 0
DWIDTH 6 0
BBX 2 8 3 0
BITMAP
80
C0
C0
C0
40
40
40
40
ENDCHAR

STARTCHAR bracketright
ENCODING 93
SWIDTH 385 0
DWIDTH 4 0
BBX 5 11 0 -3
BITMAP
38
18
10
30
30
30
30
20
20
60
E0
ENDCHAR

STARTCHAR asciicircum
ENCODING 94
SWIDTH 583 0
DWIDTH 6 0
BBX 5 4 1 4
BITMAP
20
60
50
98
ENDCHAR

STARTCHAR underscore
ENCODING 95
SWIDTH 500 0
DWIDTH 5 0
BBX 5 1 0 -3
BITMAP
F8
ENDCHAR

STARTCHAR quoteleft
ENCODING 96
SWIDTH 333 0
DWIDTH 3 0
BBX 2 4 1 4
BITMAP
40
40
C0
C0
ENDCHAR

STARTCHAR a
ENCODING 97
SWIDTH 573 0
DWIDTH 6 0
BBX 5 5 0 0
BITMAP
70
18
78
90
F8
ENDCHAR

STARTCHAR b
ENCODING 98
SWIDTH 604 0
DWIDTH 6 0
BBX 6 8 0 0
BITMAP
70
60
20
3C
6C
6C
6C
F8
ENDCHAR

STARTCHAR c
ENCODING 99
SWIDTH 531 0
DWIDTH 5 0
BBX 5 5 1 0
BITMAP
78
D8
C0
D0
70
ENDCHAR

STARTCHAR d
ENCODING 100
SWIDTH 604 0
DWIDTH 6 0
BBX 6 8 1 0
BITMAP
0C
0C
0C
78
D8
D8
D8
F8
ENDCHAR

STARTCHAR e
ENCODING 101
SWIDTH 552 0
DWIDTH 6 0
BBX 5 5 1 0
BITMAP
70
D8
F8
80
70
ENDCHAR

STARTCHAR f
ENCODING 102
SWIDTH 333 0
DWIDTH 3 0
BBX 5 8 0 0
BITMAP
18
20
20
70
60
60
40
E0
ENDCHAR

STARTCHAR g
ENCODING 103
SWIDTH 604 0
DWIDTH 6 0
BBX 7 8 0 -3
BITMAP
36
6C
4C
4C
78
18
98
F0
ENDCHAR

STARTCHAR h
ENCODING 104
SWIDTH 604 0
DWIDTH 6 0
BBX 6 8 0 0
BITMAP
70
20
60
78
6C
68
48
FC
ENDCHAR

STARTCHAR i
ENCODING 105
SWIDTH 333 0
DWIDTH 3 0
BBX 3 8 0 0
BITMAP
20
00
00
60
60
60
40
E0
ENDCHAR

STARTCHAR j
ENCODING 106
SWIDTH 323 0
DWIDTH 3 0
BBX 4 11 0 -3
BITMAP
10
00
00
30
30
30
20
20
60
60
C0
ENDCHAR

STARTCHAR k
ENCODING 107
SWIDTH 573 0
DWIDTH 6 0
BBX 6 8 0 0
BITMAP
70
60
20
7C
68
70
58
F8
ENDCHAR

STARTCHAR l
ENCODING 108
SWIDTH 333 0
DWIDTH 3 0
BBX 4 8 0 0
BITMAP
70
20
60
60
60
60
40
E0
ENDCHAR

STARTCHAR m
ENCODING 109
SWIDTH 969 0
DWIDTH 10 0
BBX 10 5 0 0
BITMAP
7F80
6480
6C80
6D80
EDC0
ENDCHAR

STARTCHAR n
ENCODING 110
SWIDTH 604 0
DWIDTH 6 0
BBX 6 5 0 0
BITMAP
78
6C
68
48
FC
ENDCHAR

STARTCHAR o
ENCODING 111
SWIDTH 573 0
DWIDTH 6 0
BBX 5 5 1 0
BITMAP
70
D8
98
98
70
ENDCHAR

STARTCHAR p
ENCODING 112
SWIDTH 604 0
DWIDTH 6 0
BBX 7 8 0 -3
BITMAP
7C
36
26
64
7C
60
60
E0
ENDCHAR

STARTCHAR q
ENCODING 113
SWIDTH 604 0
DWIDTH 6 0
BBX 6 8 1 -3
BITMAP
7C
D8
D8
D8
F8
10
10
38
ENDCHAR

STARTCHAR r
ENCODING 114
SWIDTH 417 0
DWIDTH 4 0
BBX 5 5 0 0
BITMAP
78
60
60
40
E0
ENDCHAR

STARTCHAR s
ENCODING 115
SWIDTH 490 0
DWIDTH 5 0
BBX 5 5 0 0
BITMAP
78
48
70
98
F0
ENDCHAR

STARTCHAR t
ENCODING 116
SWIDTH 333 0
DWIDTH 3 0
BBX 3 7 1 0
BITMAP
20
40
E0
C0
C0
C0
E0
ENDCHAR

STARTCHAR u
ENCODING 117
SWIDTH 604 0
DWIDTH 6 0
BBX 5 5 1 0
BITMAP
D8
D8
D8
D8
F8
ENDCHAR

STARTCHAR v
ENCODING 118
SWIDTH 510 0
DWIDTH 5 0
BBX 6 5 0 0
BITMAP
FC
50
50
60
60
ENDCHAR

STARTCHAR w
ENCODING 119
SWIDTH 760 0
DWIDTH 8 0
BBX 8 5 0 0
BITMAP
EB
5A
5A
6C
6C
ENDCHAR

STARTCHAR x
ENCODING 120
SWIDTH 500 0
DWIDTH 5 0
BBX 6 5 0 0
BITMAP
6C
30
30
30
D8
ENDCHAR

STARTCHAR y
ENCODING 121
SWIDTH 563 0
DWIDTH 6 0
BBX 6 8 0 -3
BITMAP
FC
48
50
50
60
20
40
C0
ENDCHAR

STARTCHAR z
ENCODING 122
SWIDTH 479 0
DWIDTH 5 0
BBX 5 5 0 0
BITMAP
78
50
20
58
F0
ENDCHAR

STARTCHAR braceleft
ENCODING 123
SWIDTH 385 0
DWIDTH 4 0
BBX 4 11 1 -3
BITMAP
10
20
20
20
40
40
C0
40
40
40
60
ENDCHAR

STARTCHAR bar
ENCODING 124
SWIDTH 611 0
DWIDTH 6 0
BBX 3 11 2 -3
BITMAP
20
20
20
60
60
40
40
40
C0
C0
80
ENDCHAR

STARTCHAR braceright
ENCODING 125
SWIDTH 385 0
DWIDTH 4 0
BBX 4 11 0 -3
BITMAP
30
10
30
30
30
20
20
20
60
40
C0
ENDCHAR

STARTCHAR asciitilde
ENCODING 126
SWIDTH 583 0
DWIDTH 6 0
BBX 5 2 1 4
BITMAP
E8
98
ENDCHAR

STARTCHAR exclamdown
ENCODING 161
SWIDTH 333 0
DWIDTH 3 0
BBX 3 8 0 -3
BITMAP
60
00
40
40
40
C0
C0
80
ENDCHAR

STARTCHAR cent
ENCODING 162
SWIDTH 531 0
DWIDTH 5 0
BBX 5 9 1 -2
BITMAP
10
10
78
E8
E0
F0
F0
40
C0
ENDCHAR

STARTCHAR sterling
ENCODING 163
SWIDTH 510 0
DWIDTH 5 0
BBX 5 8 0 0
BITMAP
38
28
60
60
F0
20
E8
F0
ENDCHAR

STARTCHAR currency
ENCODING 164
SWIDTH 667 0
DWIDTH 7 0
BBX 4 5 2 1
BITMAP
F0
90
90
90
F0
ENDCHAR

STARTCHAR yen
ENCODING 165
SWIDTH 625 0
DWIDTH 6 0
BBX 7 8 0 0
BITMAP
FE
64
FE
28
FE
30
30
70
ENDCHAR

STARTCHAR brokenbar
ENCODING 166
SWIDTH 611 0
DWIDTH 6 0
BBX 3 11 2 -3
BITMAP
20
20
20
20
60
60
00
40
40
C0
80
ENDCHAR

STARTCHAR section
ENCODING 167
SWIDTH 510 0
DWIDTH 5 0
BBX 5 11 0 -3
BITMAP
38
68
60
50
58
C8
C8
70
30
90
60
ENDCHAR

STARTCHAR dieresis
ENCODING 168
SWIDTH 333 0
DWIDTH 3 0
BBX 4 2 1 6
BITMAP
F0
F0
ENDCHAR

STARTCHAR copyright
ENCODING 169
SWIDTH 740 0
DWIDTH 7 0
BBX 8 8 0 0
BITMAP
3C
42
99
A5
A1
A5
5A
3C
ENDCHAR

STARTCHAR ordfeminine
ENCODING 170
SWIDTH 375 0
DWIDTH 4 0
BBX 3 4 1 4
BITMAP
E0
E0
E0
E0
ENDCHAR

STARTCHAR guillemotleft
ENCODING 171
SWIDTH 531 0
DWIDTH 5 0
BBX 5 5 0 0
BITMAP
78
68
28
58
F0
ENDCHAR

STARTCHAR logicalnot
ENCODING 172
SWIDTH 668 0
DWIDTH 7 0
BBX 6 3 1 1
BITMAP
FC
0C
0C
ENDCHAR

STARTCHAR hyphen
ENCODING 173
SWIDTH 344 0
DWIDTH 3 0
BBX 3 1 1 2
BITMAP
E0
ENDCHAR

STARTCHAR registered
ENCODING 174
SWIDTH 740 0
DWIDTH 7 0
BBX 7 8 0 0
BITMAP
38
44
BA
AA
BA
AA
44
38
ENDCHAR

STARTCHAR macron
ENCODING 175
SWIDTH 333 0
DWIDTH 3 0
BBX 4 1 0 7
BITMAP
F0
ENDCHAR

STARTCHAR degree
ENCODING 176
SWIDTH 396 0
DWIDTH 4 0
BBX 4 4 1 4
BITMAP
60
90
90
60
ENDCHAR

STARTCHAR plusminus
ENCODING 177
SWIDTH 668 0
DWIDTH 7 0
BBX 5 8 1 0
BITMAP
20
20
20
F8
20
20
00
F8
ENDCHAR

STARTCHAR twosuperior
ENCODING 178
SWIDTH 333 0
DWIDTH 3 0
BBX 3 4 -3 4
BITMAP
60
A0
60
E0
ENDCHAR

STARTCHAR threesuperior
ENCODING 179
SWIDTH 333 0
DWIDTH 3 0
BBX 3 4 -4 4
BITMAP
60
60
A0
C0
ENDCHAR

STARTCHAR acute
ENCODING 180
SWIDTH 333 0
DWIDTH 3 0
BBX 3 2 2 6
BITMAP
60
80
ENDCHAR

STARTCHAR mu
ENCODING 181
SWIDTH 615 0
DWIDTH 6 0
BBX 6 8 0 -3
BITMAP
64
6C
4C
4C
78
C0
C0
C0
ENDCHAR

STARTCHAR paragraph
ENCODING 182
SWIDTH 552 0
DWIDTH 6 0
BBX 6 11 0 -3
BITMAP
7C
E8
E8
E8
28
50
50
50
50
50
70
ENDCHAR

STARTCHAR periodcentered
ENCODING 183
SWIDTH 333 0
DWIDTH 3 0
BBX 2 2 1 3
BITMAP
C0
C0
ENDCHAR

STARTCHAR cedilla
ENCODING 184
SWIDTH 333 0
DWIDTH 3 0
BBX 3 2 0 -3
BITMAP
60
C0
ENDCHAR

STARTCHAR onesuperior
ENCODING 185
SWIDTH 333 0
DWIDTH 3 0
BBX 2 4 -4 4
BITMAP
40
40
40
C0
ENDCHAR

STARTCHAR ordmasculine
ENCODING 186
SWIDTH 375 0
DWIDTH 4 0
BBX 3 3 1 5
BITMAP
60
A0
E0
ENDCHAR

STARTCHAR guillemotright
ENCODING 187
SWIDTH 531 0
DWIDTH 5 0
BBX 5 5 1 0
BITMAP
68
50
B0
D0
50
ENDCHAR

STARTCHAR onequarter
ENCODING 188
SWIDTH 927 0
DWIDTH 9 0
BBX 9 8 1 0
BITMAP
4300
4400
4C00
D800
1180
2380
4380
C100
ENDCHAR

STARTCHAR onehalf
ENCODING 189
SWIDTH 927 0
DWIDTH 9 0
BBX 9 8 1 0
BITMAP
4300
4400
4C00
D800
1180
2280
4180
C380
ENDCHAR

STARTCHAR threequarters
ENCODING 190
SWIDTH 927 0
DWIDTH 9 0
BBX 10 8 2 0
BITMAP
6180
6200
A600
CC00
08C0
11C0
21C0
6080
ENDCHAR

STARTCHAR questiondown
ENCODING 191
SWIDTH 542 0
DWIDTH 5 0
BBX 5 8 0 -3
BITMAP
30
00
20
60
C0
C0
D8
70
ENDCHAR

STARTCHAR Agrave
ENCODING 192
SWIDTH 646 0
DWIDTH 6 0
BBX 7 10 0 0
BITMAP
18
08
1E
14
14
14
24
3C
64
EE
ENDCHAR

STARTCHAR Aacute
ENCODING 193
SWIDTH 646 0
DWIDTH 6 0
BBX 7 10 0 0
BITMAP
06
08
1E
14
14
14
24
3C
64
EE
ENDCHAR

STARTCHAR Acircumflex
ENCODING 194
SWIDTH 646 0
DWIDTH 6 0
BBX 7 10 0 0
BITMAP
18
24
1E
14
14
14
24
3C
64
EE
ENDCHAR

STARTCHAR Atilde
ENCODING 195
SWIDTH 646 0
DWIDTH 6 0
BBX 7 10 0 0
BITMAP
1A
14
1E
14
14
14
24
3C
64
EE
ENDCHAR

STARTCHAR Adieresis
ENCODING 196
SWIDTH 646 0
DWIDTH 6 0
BBX 7 10 0 0
BITMAP
1E
1E
1E
14
14
14
24
3C
64
EE
ENDCHAR

STARTCHAR Aring
ENCODING 197
SWIDTH 646 0
DWIDTH 6 0
BBX 7 11 0 0
BITMAP
1C
14
1C
1E
14
14
14
24
3C
64
EE
ENDCHAR

STARTCHAR AE
ENCODING 198
SWIDTH 927 0
DWIDTH 9 0
BBX 11 8 0 0
BITMAP
1FE0
0A40
1600
1600
3F00
2400
4CC0
FF80
ENDCHAR

STARTCHAR Ccedilla
ENCODING 199
SWIDTH 771 0
DWIDTH 8 0
BBX 8 10 1 -2
BITMAP
1F
62
40
C0
C0
C0
46
78
30
60
ENDCHAR

STARTCHAR Egrave
ENCODING 200
SWIDTH 635 0
DWIDTH 6 0
BBX 7 10 0 0
BITMAP
18
08
7E
36
30
20
78
60
64
FC
ENDCHAR

STARTCHAR Eacute
ENCODING 201
SWIDTH 635 0
DWIDTH 6 0
BBX 7 10 0 0
BITMAP
0C
10
7E
36
30
20
78
60
64
FC
ENDCHAR

STARTCHAR Ecircumflex
ENCODING 202
SWIDTH 635 0
DWIDTH 6 0
BBX 7 10 0 0
BITMAP
18
24
7E
36
30
20
78
60
64
FC
ENDCHAR

STARTCHAR Edieresis
ENCODING 203
SWIDTH 635 0
DWIDTH 6 0
BBX 7 10 0 0
BITMAP
3C
3C
7E
36
30
20
78
60
64
FC
ENDCHAR

STARTCHAR Igrave
ENCODING 204
SWIDTH 396 0
DWIDTH 4 0
BBX 5 10 0 0
BITMAP
30
10
78
30
30
30
60
60
60
F0
ENDCHAR

STARTCHAR Iacute
ENCODING 205
SWIDTH 396 0
DWIDTH 4 0
BBX 5 10 0 0
BITMAP
18
20
78
30
30
30
60
60
60
F0
ENDCHAR

STARTCHAR Icircumflex
ENCODING 206
SWIDTH 396 0
DWIDTH 4 0
BBX 5 10 0 0
BITMAP
30
48
78
30
30
30
60
60
60
F0
ENDCHAR

STARTCHAR Idieresis
ENCODING 207
SWIDTH 396 0
DWIDTH 4 0
BBX 5 10 0 0
BITMAP
78
78
78
30
30
30
60
60
60
F0
ENDCHAR

STARTCHAR Eth
ENCODING 208
SWIDTH 760 0
DWIDTH 8 0
BBX 8 8 0 0
BITMAP
7C
36
33
33
7B
66
66
FC
ENDCHAR

STARTCHAR Ntilde
ENCODING 209
SWIDTH 792 0
DWIDTH 8 0
BBX 9 10 0 0
BITMAP
1A00
1400
7B80
3B00
3A00
3A00
4A00
4E00
4E00
EC00
ENDCHAR

STARTCHAR Ograve
ENCODING 210
SWIDTH 823 0
DWIDTH 8 0
BBX 7 10 1 0
BITMAP
18
08
3C
66
42
C2
C6
C6
CC
78
ENDCHAR

STARTCHAR Oacute
ENCODING 211
SWIDTH 823 0
DWIDTH 8 0
BBX 7 10 1 0
BITMAP
06
08
3C
66
42
C2
C6
C6
CC
78
ENDCHAR

STARTCHAR Ocircumflex
ENCODING 212
SWIDTH 823 0
DWIDTH 8 0
BBX 7 10 1 0
BITMAP
18
24
3C
66
42
C2
C6
C6
CC
78
ENDCHAR

STARTCHAR Otilde
ENCODING 213
SWIDTH 823 0
DWIDTH 8 0
BBX 7 10 1 0
BITMAP
1A
14
3C
66
42
C2
C6
C6
CC
78
ENDCHAR

STARTCHAR Odieresis
ENCODING 214
SWIDTH 823 0
DWIDTH 8 0
BBX 7 10 1 0
BITMAP
1E
1E
3C
66
42
C2
C6
C6
CC
78
ENDCHAR

STARTCHAR multiply
ENCODING 215
SWIDTH 667 0
DWIDTH 7 0
BBX 5 6 1 1
BITMAP
88
D8
70
70
D8
88
ENDCHAR

STARTCHAR Oslash
ENCODING 216
SWIDTH 823 0
DWIDTH 8 0
BBX 7 8 1 0
BITMAP
3E
66
4A
D2
F6
E6
CC
F8
ENDCHAR

STARTCHAR Ugrave
ENCODING 217
SWIDTH 708 0
DWIDTH 7 0
BBX 7 10 1 0
BITMAP
30
10
EE
64
CC
C8
C8
C8
C8
70
ENDCHAR

STARTCHAR Uacute
ENCODING 218
SWIDTH 708 0
DWIDTH 7 0
BBX 7 10 1 0
BITMAP
0C
10
EE
64
CC
C8
C8
C8
C8
70
ENDCHAR

STARTCHAR Ucircumflex
ENCODING 219
SWIDTH 708 0
DWIDTH 7 0
BBX 7 10 1 0
BITMAP
30
48
EE
64
CC
C8
C8
C8
C8
70
ENDCHAR

STARTCHAR Udieresis
ENCODING 220
SWIDTH 708 0
DWIDTH 7 0
BBX 7 10 1 0
BITMAP
3C
3C
EE
64
CC
C8
C8
C8
C8
70
ENDCHAR

STARTCHAR Yacute
ENCODING 221
SWIDTH 625 0
DWIDTH 6 0
BBX 7 10 1 0
BITMAP
0C
10
EE
6C
68
70
30
20
60
F0
ENDCHAR

STARTCHAR Thorn
ENCODING 222
SWIDTH 646 0
DWIDTH 6 0
BBX 7 8 0 0
BITMAP
78
3C
34
66
66
6C
78
E0
ENDCHAR

STARTCHAR germandbls
ENCODING 223
SWIDTH 615 0
DWIDTH 6 0
BBX 6 8 0 0
BITMAP
3C
24
64
68
6C
64
4C
F8
ENDCHAR

STARTCHAR agrave
ENCODING 224
SWIDTH 573 0
DWIDTH 6 0
BBX 5 7 0 0
BITMAP
30
18
70
18
78
90
F8
ENDCHAR

STARTCHAR aacute
ENCODING 225
SWIDTH 573 0
DWIDTH 6 0
BBX 5 7 0 0
BITMAP
18
20
70
18
78
90
F8
ENDCHAR

STARTCHAR acircumflex
ENCODING 226
SWIDTH 573 0
DWIDTH 6 0
BBX 5 7 0 0
BITMAP
30
48
70
18
78
90
F8
ENDCHAR

STARTCHAR atilde
ENCODING 227
SWIDTH 573 0
DWIDTH 6 0
BBX 5 7 0 0
BITMAP
68
50
70
18
78
90
F8
ENDCHAR

STARTCHAR adieresis
ENCODING 228
SWIDTH 573 0
DWIDTH 6 0
BBX 5 7 0 0
BITMAP
78
78
70
18
78
90
F8
ENDCHAR

STARTCHAR aring
ENCODING 229
SWIDTH 573 0
DWIDTH 6 0
BBX 5 8 0 0
BITMAP
38
28
38
70
18
78
90
F8
ENDCHAR

STARTCHAR ae
ENCODING 230
SWIDTH 844 0
DWIDTH 8 0
BBX 8 5 0 0
BITMAP
7E
19
7F
98
EE
ENDCHAR

STARTCHAR ccedilla
ENCODING 231
SWIDTH 531 0
DWIDTH 5 0
BBX 5 7 1 -2
BITMAP
78
D8
C0
D0
70
60
C0
ENDCHAR

STARTCHAR egrave
ENCODING 232
SWIDTH 552 0
DWIDTH 6 0
BBX 5 7 1 0
BITMAP
60
20
70
D8
F8
80
70
ENDCHAR

STARTCHAR eacute
ENCODING 233
SWIDTH 552 0
DWIDTH 6 0
BBX 5 7 1 0
BITMAP
18
20
70
D8
F8
80
70
ENDCHAR

STARTCHAR ecircumflex
ENCODING 234
SWIDTH 552 0
DWIDTH 6 0
BBX 5 7 1 0
BITMAP
30
48
70
D8
F8
80
70
ENDCHAR

STARTCHAR edieresis
ENCODING 235
SWIDTH 552 0
DWIDTH 6 0
BBX 5 7 1 0
BITMAP
78
78
70
D8
F8
80
70
ENDCHAR

STARTCHAR igrave
ENCODING 236
SWIDTH 333 0
DWIDTH 3 0
BBX 4 7 0 0
BITMAP
60
30
60
60
60
40
E0
ENDCHAR

STARTCHAR iacute
ENCODING 237
SWIDTH 333 0
DWIDTH 3 0
BBX 4 7 0 0
BITMAP
30
40
60
60
60
40
E0
ENDCHAR

STARTCHAR icircumflex
ENCODING 238
SWIDTH 333 0
DWIDTH 3 0
BBX 4 7 0 0
BITMAP
60
90
60
60
60
40
E0
ENDCHAR

STARTCHAR idieresis
ENCODING 239
SWIDTH 333 0
DWIDTH 3 0
BBX 4 7 0 0
BITMAP
F0
F0
60
60
60
40
E0
ENDCHAR

STARTCHAR eth
ENCODING 240
SWIDTH 635 0
DWIDTH 6 0
BBX 5 8 1 0
BITMAP
30
30
38
78
D8
98
90
70
ENDCHAR

STARTCHAR ntilde
ENCODING 241
SWIDTH 604 0
DWIDTH 6 0
BBX 6 7 0 0
BITMAP
34
28
78
6C
68
48
FC
ENDCHAR

STARTCHAR ograve
ENCODING 242
SWIDTH 573 0
DWIDTH 6 0
BBX 5 7 1 0
BITMAP
30
18
70
D8
98
98
70
ENDCHAR

STARTCHAR oacute
ENCODING 243
SWIDTH 573 0
DWIDTH 6 0
BBX 5 7 1 0
BITMAP
18
20
70
D8
98
98
70
ENDCHAR

STARTCHAR ocircumflex
ENCODING 244
SWIDTH 573 0
DWIDTH 6 0
BBX 5 7 1 0
BITMAP
30
48
70
D8
98
98
70
ENDCHAR

STARTCHAR otilde
ENCODING 245
SWIDTH 573 0
DWIDTH 6 0
BBX 5 7 1 0
BITMAP
68
50
70
D8
98
98
70
ENDCHAR

STARTCHAR odieresis
ENCODING 246
SWIDTH 573 0
DWIDTH 6 0
BBX 5 7 1 0
BITMAP
78
78
70
D8
98
98
70
ENDCHAR

STARTCHAR divide
ENCODING 247
SWIDTH 668 0
DWIDTH 7 0
BBX 6 7 1 0
BITMAP
20
20
00
FC
00
20
20
ENDCHAR

STARTCHAR oslash
ENCODING 248
SWIDTH 573 0
DWIDTH 6 0
BBX 5 5 1 0
BITMAP
78
D8
B8
D8
F0
ENDCHAR

STARTCHAR ugrave
ENCODING 249
SWIDTH 604 0
DWIDTH 6 0
BBX 5 7 1 0
BITMAP
30
18
D8
D8
D8
D8
F8
ENDCHAR

STARTCHAR uacute
ENCODING 250
SWIDTH 604 0
DWIDTH 6 0
BBX 5 7 1 0
BITMAP
18
20
D8
D8
D8
D8
F8
ENDCHAR

STARTCHAR ucircumflex
ENCODING 251
SWIDTH 604 0
DWIDTH 6 0
BBX 5 7 1 0
BITMAP
30
48
D8
D8
D8
D8
F8
ENDCHAR

STARTCHAR udieresis
ENCODING 252
SWIDTH 604 0
DWIDTH 6 0
BBX 5 7 1 0
BITMAP
78
78
D8
D8
D8
D8
F8
ENDCHAR

STARTCHAR yacute
ENCODING 253
SWIDTH 563 0
DWIDTH 6 0
BBX 6 10 0 -3
BITMAP
0C
10
FC
48
50
50
60
20
40
C0
ENDCHAR

STARTCHAR thorn
ENCODING 254
SWIDTH 604 0
DWIDTH 6 0
BBX 7 11 0 -3
BITMAP
30
30
30
3C
36
26
64
7C
60
60
E0
ENDCHAR

STARTCHAR ydieresis
ENCODING 255
SWIDTH 563 0
DWIDTH 6 0
BBX 6 10 0 -3
BITMAP
3C
3C
FC
48
50
50
60
20
40
C0
ENDCHAR
ENDFONT
